<?xml version="1.0" encoding="UTF-8"?>
<svg width="20px" height="20px" viewBox="0 0 20 20" version="1.1" xmlns="http://www.w3.org/2000/svg" xmlns:xlink="http://www.w3.org/1999/xlink">
    <!-- Generator: Sketch 51.2 (57519) - http://www.bohemiancoding.com/sketch -->
    <title>china</title>
    <desc>Created with Sketch.</desc>
    <defs></defs>
    <g id="Page-1" stroke="none" stroke-width="1" fill="none" fill-rule="evenodd">
        <g id="chian" fill-rule="nonzero">
            <circle id="Rectangle-path" fill="#DE2910" cx="10" cy="10" r="10"></circle>
            <g id="s-link" transform="translate(2.000000, 3.000000)" fill="#FFDE00">
                <polygon id="s" points="4.5 0 7.1450325 8.1405765 0.2202435 3.1094235 8.7797565 3.1094235 1.8549675 8.1405765"></polygon>
            </g>
            <g id="s-link" transform="translate(11.500000, 3.500000) rotate(23.036243) translate(-11.500000, -3.500000) translate(10.000000, 2.000000)" fill="#FFDE00">
                <polygon id="s" points="1.5 0 2.3816775 2.7135255 0.0734145 1.0364745 2.9265855 1.0364745 0.6183225 2.7135255"></polygon>
            </g>
            <g id="s-link" transform="translate(15.500000, 5.500000) rotate(45.869898) translate(-15.500000, -5.500000) translate(14.000000, 4.000000)" fill="#FFDE00">
                <polygon id="s" points="1.5 0 2.3816775 2.7135255 0.0734145 1.0364745 2.9265855 1.0364745 0.6183225 2.7135255"></polygon>
            </g>
            <g id="s-link" transform="translate(15.500000, 9.500000) rotate(69.945396) translate(-15.500000, -9.500000) translate(14.000000, 8.000000)" fill="#FFDE00">
                <polygon id="s" points="1.5 0 2.3816775 2.7135255 0.0734145 1.0364745 2.9265855 1.0364745 0.6183225 2.7135255"></polygon>
            </g>
            <g id="s-link" transform="translate(12.500000, 12.500000) rotate(20.659808) translate(-12.500000, -12.500000) translate(11.000000, 11.000000)" fill="#FFDE00">
                <polygon id="s" points="1.5 0 2.3816775 2.7135255 0.0734145 1.0364745 2.9265855 1.0364745 0.6183225 2.7135255"></polygon>
            </g>
        </g>
    </g>
</svg>